<svg width="180" height="45" viewBox="0 0 180 45" fill="none" xmlns="http://www.w3.org/2000/svg">
<path d="M52.5714 27.3C51.5914 27.3 50.5914 27.15 49.5714 26.85C48.5514 26.55 48.0214 26.4 47.9814 26.4C47.8614 26.4 47.7214 26.46 47.5614 26.58C47.4014 26.7 47.3214 26.84 47.3214 27H46.6314V22.26H47.2914C47.5114 23.44 48.1714 24.41 49.2714 25.17C50.3714 25.91 51.4114 26.28 52.3914 26.28C53.3914 26.28 54.1914 26.02 54.7914 25.5C55.4114 24.96 55.7214 24.26 55.7214 23.4C55.7214 23.1 55.6214 22.81 55.4214 22.53C55.2414 22.23 54.9414 21.93 54.5214 21.63C54.1214 21.31 53.7614 21.05 53.4414 20.85C53.1214 20.63 52.6514 20.34 52.0314 19.98C51.4314 19.62 51.0014 19.36 50.7414 19.2C48.0214 17.52 46.6614 15.72 46.6614 13.8C46.6614 12.62 47.2014 11.55 48.2814 10.59C49.3614 9.63 50.5714 9.15 51.9114 9.15C52.5114 9.15 53.2414 9.3 54.1014 9.6C54.9614 9.9 55.4414 10.05 55.5414 10.05C55.7814 10.05 55.9014 9.85 55.9014 9.45H56.5914L56.8914 13.98H56.2314C56.1114 13.16 55.5714 12.32 54.6114 11.46C53.6514 10.6 52.7614 10.17 51.9414 10.17C51.0414 10.17 50.3614 10.46 49.9014 11.04C49.4414 11.6 49.2114 12.2 49.2114 12.84C49.2114 13.1 49.3014 13.36 49.4814 13.62C49.6614 13.86 49.9514 14.13 50.3514 14.43C50.7514 14.73 51.1014 14.98 51.4014 15.18C51.7014 15.36 52.1614 15.63 52.7814 15.99C53.4014 16.35 53.8314 16.6 54.0714 16.74C55.4514 17.58 56.5314 18.45 57.3114 19.35C58.0914 20.25 58.4814 21.32 58.4814 22.56C58.4814 24.04 57.8814 25.2 56.6814 26.04C55.4814 26.88 54.1114 27.3 52.5714 27.3ZM73.9574 25.2C75.0374 25.28 75.6674 25.32 75.8474 25.32V26.01C75.4674 26.01 74.5474 26.23 73.0874 26.67C71.6274 27.09 70.6674 27.3 70.2074 27.3V26.43C69.1874 27.01 68.1674 27.3 67.1474 27.3C63.2874 27.3 61.3574 25.88 61.3574 23.04V15.03C61.1774 14.63 60.5474 14.43 59.4674 14.43V13.8H65.1074V23.25C65.1074 23.67 65.1074 24 65.1074 24.24C65.1274 24.46 65.1774 24.72 65.2574 25.02C65.3374 25.32 65.4474 25.55 65.5874 25.71C65.7474 25.87 65.9674 26.01 66.2474 26.13C66.5474 26.23 66.9074 26.28 67.3274 26.28C68.3074 26.28 69.2674 26.01 70.2074 25.47V15.03C70.0274 14.63 69.3974 14.43 68.3174 14.43V13.8H73.9574V25.2ZM84.4968 14.4C83.5568 14.4 82.7568 14.88 82.0968 15.84C81.4368 16.78 81.1068 18.04 81.1068 19.62C81.1068 21.4 81.4668 22.94 82.1868 24.24C82.9068 25.52 83.8468 26.16 85.0068 26.16C86.6868 26.16 87.9568 25.44 88.8168 24L89.9268 24.54C89.3468 25.5 88.5868 26.2 87.6468 26.64C86.7268 27.08 85.5068 27.3 83.9868 27.3C83.3868 27.3 82.7968 27.23 82.2168 27.09C81.6368 26.97 81.0368 26.73 80.4168 26.37C79.7968 26.01 79.2568 25.56 78.7968 25.02C78.3368 24.48 77.9568 23.76 77.6568 22.86C77.3568 21.94 77.2068 20.9 77.2068 19.74C77.2068 18.02 77.8668 16.55 79.1868 15.33C80.5068 14.11 82.1768 13.5 84.1968 13.5C85.8168 13.5 87.1168 13.78 88.0968 14.34C89.0968 14.88 89.5968 15.66 89.5968 16.68C89.5968 17.18 89.4668 17.59 89.2068 17.91C88.9668 18.23 88.5968 18.39 88.0968 18.39C87.6168 18.39 87.2268 18.28 86.9268 18.06C86.6468 17.82 86.5068 17.51 86.5068 17.13C86.5068 16.71 86.6068 16.4 86.8068 16.2C87.0268 16 87.2768 15.9 87.5568 15.9C87.2968 14.9 86.2768 14.4 84.4968 14.4ZM98.9401 14.4C98.0001 14.4 97.2001 14.88 96.5401 15.84C95.8801 16.78 95.5501 18.04 95.5501 19.62C95.5501 21.4 95.9101 22.94 96.6301 24.24C97.3501 25.52 98.2901 26.16 99.4501 26.16C101.13 26.16 102.4 25.44 103.26 24L104.37 24.54C103.79 25.5 103.03 26.2 102.09 26.64C101.17 27.08 99.9501 27.3 98.4301 27.3C97.8301 27.3 97.2401 27.23 96.6601 27.09C96.0801 26.97 95.4801 26.73 94.8601 26.37C94.2401 26.01 93.7001 25.56 93.2401 25.02C92.7801 24.48 92.4001 23.76 92.1001 22.86C91.8001 21.94 91.6501 20.9 91.6501 19.74C91.6501 18.02 92.3101 16.55 93.6301 15.33C94.9501 14.11 96.6201 13.5 98.6401 13.5C100.26 13.5 101.56 13.78 102.54 14.34C103.54 14.88 104.04 15.66 104.04 16.68C104.04 17.18 103.91 17.59 103.65 17.91C103.41 18.23 103.04 18.39 102.54 18.39C102.06 18.39 101.67 18.28 101.37 18.06C101.09 17.82 100.95 17.51 100.95 17.13C100.95 16.71 101.05 16.4 101.25 16.2C101.47 16 101.72 15.9 102 15.9C101.74 14.9 100.72 14.4 98.9401 14.4ZM119.954 25.2C121.034 25.28 121.664 25.32 121.844 25.32V26.01C121.464 26.01 120.544 26.23 119.084 26.67C117.624 27.09 116.664 27.3 116.204 27.3V26.43C115.184 27.01 114.164 27.3 113.144 27.3C109.284 27.3 107.354 25.88 107.354 23.04V15.03C107.174 14.63 106.544 14.43 105.464 14.43V13.8H111.104V23.25C111.104 23.67 111.104 24 111.104 24.24C111.124 24.46 111.174 24.72 111.254 25.02C111.334 25.32 111.444 25.55 111.584 25.71C111.744 25.87 111.964 26.01 112.244 26.13C112.544 26.23 112.904 26.28 113.324 26.28C114.304 26.28 115.264 26.01 116.204 25.47V15.03C116.024 14.63 115.394 14.43 114.314 14.43V13.8H119.954V25.2ZM122.693 27V26.37C123.773 26.37 124.403 26.17 124.583 25.77V10.2C123.503 10.12 122.873 10.08 122.693 10.08V9.39C123.073 9.39 123.993 9.18 125.453 8.76C126.913 8.32 127.873 8.1 128.333 8.1V25.77C128.513 26.17 129.143 26.37 130.223 26.37V27H122.693ZM135.335 19.77C135.375 21.51 135.765 23.01 136.505 24.27C137.265 25.53 138.225 26.16 139.385 26.16C141.125 26.16 142.525 25.5 143.585 24.18L144.305 24.54C143.725 25.5 142.965 26.2 142.025 26.64C141.105 27.08 139.885 27.3 138.365 27.3C137.585 27.3 136.825 27.19 136.085 26.97C135.345 26.73 134.605 26.35 133.865 25.83C133.145 25.29 132.555 24.5 132.095 23.46C131.655 22.42 131.435 21.18 131.435 19.74C131.435 18 132.045 16.53 133.265 15.33C134.505 14.11 136.105 13.5 138.065 13.5C140.205 13.5 141.865 14.11 143.045 15.33C144.225 16.53 144.815 18.01 144.815 19.77H135.335ZM135.365 18.84H140.825C140.705 17.42 140.455 16.33 140.075 15.57C139.715 14.79 139.125 14.4 138.305 14.4C137.585 14.4 136.935 14.77 136.355 15.51C135.795 16.23 135.465 17.34 135.365 18.84ZM146.255 27V26.37C147.335 26.37 147.965 26.17 148.145 25.77V15.6C147.065 15.52 146.435 15.48 146.255 15.48V14.79C146.635 14.79 147.555 14.58 149.015 14.16C150.475 13.72 151.435 13.5 151.895 13.5V14.76C152.895 13.92 153.995 13.5 155.195 13.5C157.115 13.5 158.605 13.86 159.665 14.58C160.725 15.28 161.255 16.34 161.255 17.76V25.77C161.435 26.17 162.065 26.37 163.145 26.37V27H155.615V26.37C156.695 26.37 157.325 26.17 157.505 25.77V17.55C157.505 16.65 157.295 15.92 156.875 15.36C156.475 14.8 155.855 14.52 155.015 14.52C153.775 14.52 152.735 14.92 151.895 15.72V25.77C152.075 26.17 152.705 26.37 153.785 26.37V27H146.255ZM169.47 9.45V13.8H172.05V14.7H169.47V24.24C169.47 24.86 169.58 25.34 169.8 25.68C170.02 26 170.43 26.16 171.03 26.16C171.39 26.16 171.75 25.99 172.11 25.65C172.49 25.29 172.75 24.8 172.89 24.18L173.61 24.54C173.19 26.38 171.99 27.3 170.01 27.3C168.45 27.3 167.31 26.95 166.59 26.25C165.89 25.53 165.54 24.36 165.54 22.74V14.7H163.44V13.8C164.62 13.8 165.65 13.36 166.53 12.48C167.41 11.58 167.85 10.57 167.85 9.45H169.47Z" fill="#364A3B"/>
<path d="M53.2438 34.8121C53.1699 34.5724 53.0678 34.3579 52.9376 34.1685C52.8103 33.9761 52.6564 33.8119 52.4759 33.6758C52.2984 33.5397 52.0942 33.4376 51.8633 33.3695C51.6325 33.2985 51.381 33.263 51.1087 33.263C50.6204 33.263 50.1854 33.3858 49.8037 33.6314C49.4219 33.877 49.1216 34.238 48.9026 34.7145C48.6866 35.188 48.5785 35.765 48.5785 36.4457C48.5785 37.1322 48.6866 37.7137 48.9026 38.1902C49.1186 38.6666 49.419 39.0291 49.8037 39.2777C50.1884 39.5233 50.6352 39.6461 51.1442 39.6461C51.6059 39.6461 52.0054 39.5574 52.3427 39.3798C52.6831 39.2022 52.945 38.9507 53.1284 38.6252C53.3119 38.2967 53.4036 37.912 53.4036 37.4711L53.7765 37.5288H51.3085V36.2415H54.9972V37.3335C54.9972 38.1117 54.8315 38.785 54.5001 39.3532C54.1686 39.9213 53.7129 40.3593 53.1329 40.6671C52.5528 40.9719 51.887 41.1243 51.1354 41.1243C50.2979 41.1243 49.5625 40.9364 48.9292 40.5605C48.2989 40.1818 47.8062 39.6446 47.4511 38.9492C47.0989 38.2508 46.9228 37.4222 46.9228 36.4634C46.9228 35.7295 47.0264 35.074 47.2335 34.497C47.4437 33.9199 47.7366 33.4302 48.1124 33.0277C48.4883 32.6223 48.9292 32.3145 49.4352 32.1044C49.9413 31.8913 50.4917 31.7848 51.0865 31.7848C51.5896 31.7848 52.0587 31.8588 52.4937 32.0067C52.9287 32.1518 53.3149 32.3589 53.6522 32.6282C53.9925 32.8975 54.2722 33.2171 54.4912 33.587C54.7102 33.9569 54.8537 34.3653 54.9218 34.8121H53.2438ZM58.4807 41.1376C58.0486 41.1376 57.6595 41.0607 57.3132 40.9068C56.9699 40.7499 56.6977 40.5191 56.4965 40.2143C56.2982 39.9095 56.1991 39.5337 56.1991 39.0868C56.1991 38.7021 56.2701 38.384 56.4121 38.1325C56.5542 37.8809 56.748 37.6797 56.9936 37.5288C57.2392 37.3778 57.5159 37.2639 57.8237 37.187C58.1344 37.1071 58.4555 37.0494 58.7869 37.0138C59.1864 36.9724 59.5105 36.9354 59.7591 36.9029C60.0076 36.8674 60.1882 36.8141 60.3006 36.7431C60.416 36.6691 60.4737 36.5552 60.4737 36.4013V36.3746C60.4737 36.0402 60.3746 35.7813 60.1763 35.5978C59.9781 35.4144 59.6925 35.3226 59.3196 35.3226C58.926 35.3226 58.6138 35.4084 58.383 35.5801C58.1551 35.7517 58.0013 35.9544 57.9214 36.1882L56.421 35.9751C56.5394 35.5608 56.7347 35.2146 57.0069 34.9364C57.2792 34.6553 57.6121 34.4452 58.0057 34.3061C58.3993 34.1641 58.8343 34.093 59.3107 34.093C59.6392 34.093 59.9662 34.1315 60.2917 34.2085C60.6173 34.2854 60.9147 34.4126 61.184 34.5902C61.4533 34.7648 61.6693 35.003 61.832 35.3049C61.9978 35.6067 62.0806 35.984 62.0806 36.4368V41H60.5359V40.0634H60.4826C60.385 40.2528 60.2473 40.4303 60.0698 40.5961C59.8952 40.7588 59.6747 40.8905 59.4084 40.9911C59.145 41.0888 58.8358 41.1376 58.4807 41.1376ZM58.8979 39.9569C59.2205 39.9569 59.5001 39.8932 59.7369 39.766C59.9736 39.6358 60.1556 39.4641 60.2829 39.2511C60.4131 39.038 60.4782 38.8057 60.4782 38.5542V37.7507C60.4279 37.7921 60.342 37.8306 60.2207 37.8661C60.1023 37.9016 59.9692 37.9327 59.8212 37.9593C59.6732 37.986 59.5268 38.0096 59.3818 38.0304C59.2368 38.0511 59.111 38.0688 59.0045 38.0836C58.7647 38.1162 58.5502 38.1694 58.3608 38.2434C58.1714 38.3174 58.022 38.421 57.9125 38.5542C57.803 38.6844 57.7482 38.853 57.7482 39.0602C57.7482 39.3561 57.8563 39.5795 58.0723 39.7305C58.2883 39.8814 58.5635 39.9569 58.8979 39.9569ZM63.6964 41V34.1818H65.2545V35.3182H65.3255C65.4498 34.9246 65.6628 34.6213 65.9647 34.4082C66.2695 34.1922 66.6172 34.0842 67.0078 34.0842C67.0966 34.0842 67.1957 34.0886 67.3052 34.0975C67.4177 34.1034 67.5109 34.1138 67.5849 34.1286V35.6067C67.5168 35.583 67.4088 35.5623 67.2608 35.5446C67.1158 35.5239 66.9753 35.5135 66.8391 35.5135C66.5462 35.5135 66.2828 35.5771 66.049 35.7044C65.8182 35.8287 65.6362 36.0018 65.503 36.2237C65.3699 36.4457 65.3033 36.7016 65.3033 36.9917V41H63.6964ZM70.9019 41.1199C70.3662 41.1199 69.8868 40.9822 69.4637 40.707C69.0405 40.4318 68.7061 40.0323 68.4605 39.5085C68.2148 38.9847 68.092 38.3485 68.092 37.5998C68.092 36.8422 68.2163 36.203 68.4649 35.6822C68.7164 35.1584 69.0553 34.7633 69.4814 34.497C69.9075 34.2277 70.3825 34.093 70.9063 34.093C71.3058 34.093 71.6343 34.1611 71.8917 34.2972C72.1492 34.4304 72.3534 34.5917 72.5043 34.7811C72.6552 34.9675 72.7721 35.1436 72.855 35.3093H72.9216V31.9091H74.5329V41H72.9526V39.9258H72.855C72.7721 40.0915 72.6523 40.2676 72.4954 40.454C72.3386 40.6375 72.1314 40.7943 71.874 40.9245C71.6165 41.0547 71.2925 41.1199 70.9019 41.1199ZM71.3502 39.8015C71.6905 39.8015 71.9805 39.7098 72.2202 39.5263C72.4599 39.3398 72.6419 39.0809 72.7662 38.7495C72.8905 38.418 72.9526 38.0318 72.9526 37.5909C72.9526 37.15 72.8905 36.7667 72.7662 36.4412C72.6449 36.1157 72.4644 35.8627 72.2247 35.6822C71.9879 35.5017 71.6964 35.4114 71.3502 35.4114C70.9921 35.4114 70.6932 35.5046 70.4535 35.6911C70.2138 35.8775 70.0333 36.1349 69.912 36.4634C69.7907 36.7919 69.73 37.1677 69.73 37.5909C69.73 38.017 69.7907 38.3973 69.912 38.7317C70.0363 39.0632 70.2183 39.325 70.458 39.5174C70.7006 39.7068 70.998 39.8015 71.3502 39.8015ZM79.2637 41.1332C78.5801 41.1332 77.9897 40.9911 77.4926 40.707C76.9984 40.42 76.6181 40.0146 76.3518 39.4908C76.0854 38.964 75.9522 38.344 75.9522 37.6309C75.9522 36.9295 76.0854 36.314 76.3518 35.7843C76.621 35.2516 76.9969 34.8373 77.4792 34.5414C77.9616 34.2425 78.5283 34.093 79.1793 34.093C79.5996 34.093 79.9961 34.1611 80.369 34.2972C80.7448 34.4304 81.0762 34.6375 81.3633 34.9187C81.6533 35.1998 81.8812 35.5579 82.0469 35.9929C82.2126 36.425 82.2955 36.9399 82.2955 37.5376V38.0304H76.7069V36.9473H80.7552C80.7522 36.6395 80.6856 36.3658 80.5554 36.1261C80.4252 35.8834 80.2432 35.6925 80.0094 35.5534C79.7786 35.4144 79.5093 35.3448 79.2015 35.3448C78.8731 35.3448 78.5845 35.4247 78.3359 35.5845C78.0874 35.7414 77.8935 35.9485 77.7545 36.206C77.6183 36.4605 77.5488 36.7401 77.5458 37.0449V37.9904C77.5458 38.387 77.6183 38.7273 77.7633 39.0114C77.9083 39.2925 78.111 39.5085 78.3715 39.6594C78.6319 39.8074 78.9367 39.8814 79.2859 39.8814C79.5197 39.8814 79.7313 39.8488 79.9206 39.7837C80.11 39.7157 80.2743 39.6165 80.4134 39.4863C80.5525 39.3561 80.6575 39.1948 80.7285 39.0025L82.2289 39.1712C82.1342 39.5677 81.9537 39.9139 81.6873 40.2099C81.424 40.5028 81.0866 40.7307 80.6753 40.8935C80.2639 41.0533 79.7934 41.1332 79.2637 41.1332ZM85.2618 37.005V41H83.6549V34.1818H85.1908V35.3404H85.2707C85.4275 34.9586 85.6776 34.6553 86.0208 34.4304C86.3671 34.2055 86.7947 34.093 87.3037 34.093C87.7742 34.093 88.1841 34.1937 88.5333 34.3949C88.8854 34.5961 89.1577 34.8876 89.35 35.2694C89.5453 35.6511 89.6415 36.1142 89.6386 36.6587V41H88.0317V36.9073C88.0317 36.4516 87.9133 36.095 87.6765 35.8375C87.4428 35.5801 87.1187 35.4513 86.7044 35.4513C86.4233 35.4513 86.1732 35.5135 85.9542 35.6378C85.7382 35.7591 85.5681 35.9352 85.4438 36.166C85.3224 36.3968 85.2618 36.6765 85.2618 37.005ZM91.2721 41V34.1818H92.879V41H91.2721ZM92.08 33.2141C91.8255 33.2141 91.6065 33.1298 91.423 32.9611C91.2395 32.7895 91.1478 32.5838 91.1478 32.3441C91.1478 32.1014 91.2395 31.8958 91.423 31.7271C91.6065 31.5555 91.8255 31.4696 92.08 31.4696C92.3374 31.4696 92.5564 31.5555 92.7369 31.7271C92.9204 31.8958 93.0121 32.1014 93.0121 32.3441C93.0121 32.5838 92.9204 32.7895 92.7369 32.9611C92.5564 33.1298 92.3374 33.2141 92.08 33.2141ZM96.1382 37.005V41H94.5314V34.1818H96.0672V35.3404H96.1471C96.304 34.9586 96.554 34.6553 96.8973 34.4304C97.2435 34.2055 97.6711 34.093 98.1801 34.093C98.6507 34.093 99.0605 34.1937 99.4097 34.3949C99.7619 34.5961 100.034 34.8876 100.226 35.2694C100.422 35.6511 100.518 36.1142 100.515 36.6587V41H98.9081V36.9073C98.9081 36.4516 98.7898 36.095 98.553 35.8375C98.3192 35.5801 97.9952 35.4513 97.5809 35.4513C97.2998 35.4513 97.0497 35.5135 96.8307 35.6378C96.6147 35.7591 96.4445 35.9352 96.3202 36.166C96.1989 36.3968 96.1382 36.6765 96.1382 37.005ZM105.114 43.6989C104.537 43.6989 104.041 43.6204 103.627 43.4636C103.212 43.3097 102.879 43.1026 102.628 42.8422C102.376 42.5817 102.202 42.2932 102.104 41.9766L103.551 41.6259C103.616 41.7591 103.711 41.8907 103.835 42.021C103.96 42.1541 104.127 42.2636 104.337 42.3494C104.55 42.4382 104.818 42.4826 105.14 42.4826C105.596 42.4826 105.973 42.3716 106.272 42.1497C106.571 41.9307 106.721 41.5697 106.721 41.0666V39.7749H106.641C106.558 39.9406 106.437 40.1107 106.277 40.2853C106.12 40.4599 105.911 40.6064 105.651 40.7248C105.393 40.8432 105.069 40.9023 104.679 40.9023C104.155 40.9023 103.68 40.7795 103.254 40.5339C102.831 40.2853 102.493 39.9154 102.242 39.4242C101.993 38.93 101.869 38.3115 101.869 37.5687C101.869 36.82 101.993 36.1882 102.242 35.6733C102.493 35.1554 102.832 34.7633 103.258 34.497C103.684 34.2277 104.159 34.093 104.683 34.093C105.083 34.093 105.411 34.1611 105.669 34.2972C105.929 34.4304 106.136 34.5917 106.29 34.7811C106.444 34.9675 106.561 35.1436 106.641 35.3093H106.73V34.1818H108.314V41.111C108.314 41.694 108.175 42.1763 107.897 42.5581C107.619 42.9398 107.239 43.2254 106.756 43.4148C106.274 43.6042 105.726 43.6989 105.114 43.6989ZM105.127 39.6417C105.467 39.6417 105.757 39.5588 105.997 39.3931C106.237 39.2274 106.419 38.9892 106.543 38.6784C106.667 38.3677 106.73 37.9949 106.73 37.5598C106.73 37.1307 106.667 36.7549 106.543 36.4324C106.422 36.1098 106.241 35.8597 106.002 35.6822C105.765 35.5017 105.473 35.4114 105.127 35.4114C104.769 35.4114 104.47 35.5046 104.23 35.6911C103.991 35.8775 103.81 36.1335 103.689 36.459C103.568 36.7815 103.507 37.1485 103.507 37.5598C103.507 37.9771 103.568 38.3426 103.689 38.6562C103.813 38.967 103.995 39.2096 104.235 39.3842C104.477 39.5559 104.775 39.6417 105.127 39.6417ZM115.046 41L112.48 31.9091H114.251L115.889 38.5897H115.974L117.722 31.9091H119.334L121.087 38.5941H121.167L122.805 31.9091H124.576L122.01 41H120.386L118.566 34.6213H118.495L116.67 41H115.046ZM127.925 41.1332C127.26 41.1332 126.682 40.9867 126.194 40.6937C125.706 40.4007 125.327 39.9909 125.058 39.4641C124.791 38.9374 124.658 38.3219 124.658 37.6175C124.658 36.9132 124.791 36.2962 125.058 35.7665C125.327 35.2368 125.706 34.8255 126.194 34.5325C126.682 34.2395 127.26 34.093 127.925 34.093C128.591 34.093 129.168 34.2395 129.657 34.5325C130.145 34.8255 130.522 35.2368 130.788 35.7665C131.058 36.2962 131.192 36.9132 131.192 37.6175C131.192 38.3219 131.058 38.9374 130.788 39.4641C130.522 39.9909 130.145 40.4007 129.657 40.6937C129.168 40.9867 128.591 41.1332 127.925 41.1332ZM127.934 39.8459C128.295 39.8459 128.597 39.7467 128.84 39.5485C129.082 39.3472 129.263 39.0779 129.381 38.7406C129.503 38.4032 129.563 38.0274 129.563 37.6131C129.563 37.1958 129.503 36.8185 129.381 36.4812C129.263 36.1409 129.082 35.8701 128.84 35.6689C128.597 35.4676 128.295 35.367 127.934 35.367C127.564 35.367 127.257 35.4676 127.011 35.6689C126.768 35.8701 126.586 36.1409 126.465 36.4812C126.347 36.8185 126.287 37.1958 126.287 37.6131C126.287 38.0274 126.347 38.4032 126.465 38.7406C126.586 39.0779 126.768 39.3472 127.011 39.5485C127.257 39.7467 127.564 39.8459 127.934 39.8459ZM132.556 41V34.1818H134.114V35.3182H134.185C134.31 34.9246 134.523 34.6213 134.825 34.4082C135.129 34.1922 135.477 34.0842 135.868 34.0842C135.956 34.0842 136.056 34.0886 136.165 34.0975C136.278 34.1034 136.371 34.1138 136.445 34.1286V35.6067C136.377 35.583 136.269 35.5623 136.121 35.5446C135.976 35.5239 135.835 35.5135 135.699 35.5135C135.406 35.5135 135.143 35.5771 134.909 35.7044C134.678 35.8287 134.496 36.0018 134.363 36.2237C134.23 36.4457 134.163 36.7016 134.163 36.9917V41H132.556ZM138.977 38.8604L138.973 36.9206H139.23L141.68 34.1818H143.558L140.544 37.5376H140.211L138.977 38.8604ZM137.512 41V31.9091H139.119V41H137.512ZM141.791 41L139.572 37.8972L140.655 36.7653L143.713 41H141.791ZM150.018 35.984L148.553 36.1438C148.512 35.9959 148.439 35.8568 148.336 35.7266C148.235 35.5964 148.099 35.4913 147.927 35.4114C147.755 35.3315 147.545 35.2915 147.297 35.2915C146.962 35.2915 146.681 35.3641 146.453 35.5091C146.228 35.6541 146.118 35.842 146.12 36.0728C146.118 36.2711 146.19 36.4324 146.338 36.5566C146.489 36.6809 146.737 36.783 147.084 36.8629L148.247 37.1115C148.892 37.2506 149.371 37.4711 149.685 37.7729C150.002 38.0748 150.161 38.4698 150.164 38.9581C150.161 39.3872 150.036 39.766 149.787 40.0945C149.541 40.42 149.2 40.6745 148.762 40.858C148.324 41.0414 147.821 41.1332 147.252 41.1332C146.418 41.1332 145.746 40.9586 145.237 40.6094C144.728 40.2572 144.425 39.7675 144.327 39.1401L145.894 38.9892C145.965 39.2969 146.116 39.5292 146.347 39.6861C146.578 39.8429 146.878 39.9213 147.248 39.9213C147.63 39.9213 147.936 39.8429 148.167 39.6861C148.401 39.5292 148.518 39.3354 148.518 39.1046C148.518 38.9093 148.442 38.748 148.291 38.6207C148.143 38.4935 147.912 38.3958 147.599 38.3278L146.436 38.0836C145.782 37.9475 145.298 37.7182 144.984 37.3956C144.67 37.0701 144.515 36.6587 144.518 36.1616C144.515 35.7414 144.629 35.3774 144.86 35.0696C145.094 34.7589 145.418 34.5192 145.832 34.3505C146.249 34.1789 146.73 34.093 147.275 34.093C148.074 34.093 148.702 34.2632 149.161 34.6035C149.623 34.9438 149.908 35.404 150.018 35.984ZM153.096 37.005V41H151.489V31.9091H153.061V35.3404H153.141C153.3 34.9557 153.548 34.6523 153.882 34.4304C154.219 34.2055 154.648 34.093 155.169 34.093C155.643 34.093 156.056 34.1922 156.408 34.3904C156.76 34.5887 157.032 34.8787 157.224 35.2605C157.42 35.6422 157.517 36.1083 157.517 36.6587V41H155.911V36.9073C155.911 36.4486 155.792 36.092 155.555 35.8375C155.322 35.5801 154.993 35.4513 154.57 35.4513C154.286 35.4513 154.031 35.5135 153.806 35.6378C153.585 35.7591 153.41 35.9352 153.283 36.166C153.158 36.3968 153.096 36.6765 153.096 37.005ZM162.129 41.1332C161.464 41.1332 160.887 40.9867 160.398 40.6937C159.91 40.4007 159.531 39.9909 159.262 39.4641C158.996 38.9374 158.862 38.3219 158.862 37.6175C158.862 36.9132 158.996 36.2962 159.262 35.7665C159.531 35.2368 159.91 34.8255 160.398 34.5325C160.887 34.2395 161.464 34.093 162.129 34.093C162.795 34.093 163.372 34.2395 163.861 34.5325C164.349 34.8255 164.726 35.2368 164.993 35.7665C165.262 36.2962 165.396 36.9132 165.396 37.6175C165.396 38.3219 165.262 38.9374 164.993 39.4641C164.726 39.9909 164.349 40.4007 163.861 40.6937C163.372 40.9867 162.795 41.1332 162.129 41.1332ZM162.138 39.8459C162.499 39.8459 162.801 39.7467 163.044 39.5485C163.287 39.3472 163.467 39.0779 163.585 38.7406C163.707 38.4032 163.767 38.0274 163.767 37.6131C163.767 37.1958 163.707 36.8185 163.585 36.4812C163.467 36.1409 163.287 35.8701 163.044 35.6689C162.801 35.4676 162.499 35.367 162.138 35.367C161.768 35.367 161.461 35.4676 161.215 35.6689C160.972 35.8701 160.79 36.1409 160.669 36.4812C160.551 36.8185 160.491 37.1958 160.491 37.6131C160.491 38.0274 160.551 38.4032 160.669 38.7406C160.79 39.0779 160.972 39.3472 161.215 39.5485C161.461 39.7467 161.768 39.8459 162.138 39.8459ZM166.76 43.5568V34.1818H168.341V35.3093H168.434C168.517 35.1436 168.634 34.9675 168.785 34.7811C168.935 34.5917 169.14 34.4304 169.397 34.2972C169.655 34.1611 169.983 34.093 170.383 34.093C170.909 34.093 171.384 34.2277 171.807 34.497C172.234 34.7633 172.571 35.1584 172.819 35.6822C173.071 36.203 173.197 36.8422 173.197 37.5998C173.197 38.3485 173.074 38.9847 172.828 39.5085C172.583 40.0323 172.248 40.4318 171.825 40.707C171.402 40.9822 170.923 41.1199 170.387 41.1199C169.996 41.1199 169.672 41.0547 169.415 40.9245C169.157 40.7943 168.95 40.6375 168.793 40.454C168.639 40.2676 168.52 40.0915 168.434 39.9258H168.367V43.5568H166.76ZM168.336 37.5909C168.336 38.0318 168.398 38.418 168.523 38.7495C168.65 39.0809 168.832 39.3398 169.069 39.5263C169.308 39.7098 169.598 39.8015 169.939 39.8015C170.294 39.8015 170.591 39.7068 170.831 39.5174C171.071 39.325 171.251 39.0632 171.372 38.7317C171.497 38.3973 171.559 38.017 171.559 37.5909C171.559 37.1677 171.498 36.7919 171.377 36.4634C171.256 36.1349 171.075 35.8775 170.835 35.6911C170.596 35.5046 170.297 35.4114 169.939 35.4114C169.595 35.4114 169.304 35.5017 169.064 35.6822C168.824 35.8627 168.642 36.1157 168.518 36.4412C168.397 36.7667 168.336 37.15 168.336 37.5909Z" fill="#364A3B"/>
<path d="M24.7744 18.2082L14.5091 8L4.24392 18.2082C-1.41464 23.8353 -1.41464 32.9794 4.24392 38.6065C7.07321 41.4201 10.7912 42.8269 14.5091 42.8269C18.2271 42.8269 21.9451 41.4201 24.7744 38.6065C30.4329 32.9794 30.4329 23.8353 24.7744 18.2082ZM14.5091 39.2378C11.6073 39.2378 8.86871 38.1196 6.8193 36.0635C4.75174 34.0074 3.62728 31.3021 3.62728 28.4164C3.62728 25.5307 4.75174 22.8073 6.8193 20.7693L14.5091 13.1041V39.2378Z" fill="#364A3B"/>
</svg>
